<?xml version="1.0"?>
<svg xmlns:rdf="http://www.w3.org/1999/02/22-rdf-syntax-ns#" xmlns="http://www.w3.org/2000/svg" xmlns:cc="http://web.resource.org/cc/" xmlns:xlink="http://www.w3.org/1999/xlink" xmlns:dc="http://purl.org/dc/elements/1.1/" xmlns:svg="http://www.w3.org/2000/svg" id="Layer_1" y="0px" xml:space="preserve" viewBox="0 0 231.672 106.147" version="1.1" enable-background="new 0 0 231.672 106.147" x="0px">
<path fill="#505152" clip-rule="evenodd" d="m112.02 0.07c-11.081 1.59-23.536 2.629-34.668 2.074-5.998-0.299-12.05 0.044-18 0.259-5.61 0.203-11.597 0.77-16.999-0.008-9.942-1.43-23.722-4.165-33.026 0.675-9.323 4.85-8.511 17.62-8.975 27.334-0.532 11.116 0.082 21.943-0.333 33-0.207 5.514 1.334 10.619 1.074 16.074-0.283 5.944 0.334 9.318 3.518 13.992 3.512 5.155 6.282 9.557 12.741 11.21 5.168 1.322 11.997 0.293 17.408 0.057 11.366-0.497 22.866 1.12 34.259 0.008 10.377-1.013 20.829 1.856 31.051-0.422 9.454-2.106 18.628 0.177 27.974 1.097 4.148 0.409 8.478-0.132 12.641 0.059 8.339 0.381 16.71 0.227 25.083 0.594 8.201 0.359 15.575-0.674 23.575-1.002 6.766-0.277 13.612-0.034 20.417 0.334 6.658 0.36 11.857 0.398 15.657-5.251 1.457-2.166 3.506-3.952 4.358-6.749 0.769-2.521 0.8-5.416 1.317-8 1.137-5.667 0.381-11.93-0.408-17.667-0.793-5.764 0.065-11.519 0.001-17.333-0.062-5.678-1.333-10.928-1.333-16.667 0-5.72 0.409-10.856 0.666-16.333 0.352-7.479-2.952-9.227-9.009-12.583-12.268-6.796-29.297-4.417-43.332-4.417-9.67 0-19.397 0.169-29.008-0.333-8.058-0.42-15.971 2.444-23.984 1.674-5.123-0.492-11.291-2.097-16.667-1.341" fill-rule="evenodd"/>
<path d="m117.09 6.763c-1.37 2.403-4.352 1.826-6.72 1.68-7.435-0.457-15.609-0.776-23.28 0-5.809 0.588-11.288 1.573-16.8 1.92-5.644 0.356-10.96-1.092-16.56-1.44-9.07-0.563-18.482 0.243-25.44 0.24-5.469-0.002-15.538-2.374-18.96 1.44-1.051 1.171-1.085 3.364-2.16 4.8-0.449 6.629 0.992 13.186 0.24 21.36-0.852 9.258-1.866 20.376-0.96 29.76 0.938 9.707 0.556 18.625 5.04 25.44 1.424 1.874 3.244 2.378 5.76 3.6 1.05 0.51 1.597 1.271 2.4 1.44 1.78 0.374 4.026-0.24 6-0.24 5.273 0 10.49 0.602 15.84 0.96 8.916 0.598 18.156 0 27.6 0 19.196 0 41.27-0.053 59.04 0.24 6.621 0.109 13.032 0.781 19.68 0.96 11.052 0.297 22.151-0.268 33.12-0.24 10.95 0.028 21.859 0.154 32.641-1.439 1.362 0.106 0.223-0.897 0.72-1.44-0.262 2.428 4.019-0.198 3.12 1.92 8.335-3.813 5.951-14.049 6-25.2 0.052-11.873-1.049-26.748-0.48-39.6 0.238-5.379 0.663-16.884-3.84-20.16-0.799-0.581-2.278-0.845-3.6-1.2-4.004-1.073-9.729-1.104-14.88-1.44-2.932-2.215-6.877-1.299-11.04-1.2-6.896 0.165-13.106-0.835-19.681-0.96-12.773-0.243-26.837-0.153-41.279 0.48-0.981 0.043-6.614 0.895-6-1.44 0.349-1.328-0.565-0.96 1.92-1.2 2.603-0.25 5.388 0.061 7.68 0 15.383-0.403 35.348-0.506 51.6 0.24 6.003 0.276 13.587-0.116 19.44 0.72 0.985 0.141 2.076 0.794 3.12 0.96 4.909 0.782 10.161-0.107 13.92 2.4 0.842 0.562 3.479 3.675 3.84 4.8 1.725 5.373 1.04 12.035 0.72 18.96-0.23 4.995-0.497 12.645-0.239 17.76 0.197 3.93 1.033 7.3 1.199 10.32 0.333 6.061-0.508 14.611-0.479 20.64 0.017 3.494 0.7 7.68-0.72 10.801-1.585 3.48-6.302 8.156-10.32 5.52-9.446 2.632-20.223 1.345-32.4 1.92-26.162 1.236-56.785-1.224-87.12-1.2-11.98 0.01-24.208 0.269-36.24 0-5.826-0.13-11.609 0.946-17.28 0.48-5.68-0.467-11.067-1.058-16.32-0.96-1.779 0.033-3.741 0.503-5.52 0.24-2.545-0.377-7.817-3.396-9.36-5.28-2.617-3.195-4.798-10.44-5.28-14.88-0.277-2.554-0.029-5.379-0.24-8.16-0.93-12.262 0.307-26.662 0.48-38.64 0.103-7.062-1.629-20.507 4.32-24.48 4.173-2.787 9.267-0.128 12.96-2.64 10.464 2.52 22.241 0.344 34.32 1.68 2.975 0.329 6.041 0.976 9.12 1.2 6.328 0.46 12.936-0.758 19.2-1.44 6.466-0.704 13.068-1.585 19.2-1.68 3.9-0.057 8.75 0.773 12.96 1.683z" fill-rule="evenodd" stroke="#BADEF0" clip-rule="evenodd" stroke-width="3" fill="#BADEF0"/>
<path d="m162.45 88.603c-2.503-0.398-5.051-0.475-7.681-0.72-2.352-0.219-4.814-0.875-7.199-0.96-2.688-0.096-5.503 1.093-8.4 1.2-5.039 0.187-9.062-0.659-12.96-1.92-0.857-2.069-3.104-3.667-3.36-6-0.564-5.138 0.843-11.52 0.48-17.521-0.271-4.497 0.057-9.811-0.24-15.12-0.317-5.677-0.386-10.504-0.72-15.6-0.22-3.349-0.951-8.557 0-10.56 0.921-1.941 6.631-4.688 9.6-5.04 3.733-0.442 7.217 0.56 11.04 0.48 3.707-0.078 7.4-0.484 10.561-0.48 3.315 0.004 6.485 0.188 8.88 1.68-2.799 2.099-7.77 1.709-12.721 1.68-4.627-0.027-9.79-0.703-14.159-0.72-5.08-0.021-8.742 1.663-11.28 4.32-0.753 12.666 1.752 27.826 1.439 43.44-0.113 5.701-1.934 11.416 0.24 15.84 0.516 0.845 1.475 1.246 1.92 2.16 5.64 2.468 13.861 0.384 20.88 0.48 4.544 0.062 9.327 1.268 14.16 1.439 0.139 0.146 0.562 1.139 0 1.2 0.01 0.412-0.18 0.624-0.48 0.722z" fill-rule="evenodd" stroke="#C71F4B" clip-rule="evenodd" stroke-width="3" fill="#C71F4B"/>
<path d="m170.85 87.883c-0.388 0.067-0.413-0.227-0.72-0.24-0.189-13.368-0.56-23.268 0.24-40.08 0.19-4.019 0.443-8.443 0.24-12.24-0.207-3.856-1.264-9.255-0.48-12 0.505-1.768 3.499-5.012 5.04-5.28 5.083-0.884 8.299 8.39 9.6 11.28 2.371 5.265 4.589 9.424 6.48 14.4 3.88 10.208 8.173 19.86 13.2 28.32 1.614 5.116 3.531 11.174 8.88 11.76 0.576-7.105 0.883-15.138 0.479-23.04-0.138-2.717-0.944-5.404-0.96-8.16-0.047-8.493 0.339-17.343 0.24-25.68-0.028-2.365-1.169-4.899 1.2-6 1.581 0.988 1.21 3.255 1.2 4.8-0.061 9.54-0.591 19.831 0.239 30.24 0.429 5.367 0.125 10.063 0 14.88-0.086 3.343 2.444 15.132-2.399 15.601-2.022 0.195-6.361-3.298-7.44-5.04-1.406-2.271-2.131-5.495-3.359-8.16-1.197-2.597-2.727-5.115-3.841-7.44-2.289-4.78-4.53-10.042-6.96-15.6-3.363-7.696-6.128-15.71-10.319-23.52-2.139-3.984-5.308-8.519-8.88-3.84-1.062 4.213 0.356 8.923 0.479 13.44 0.151 5.541-0.717 11.19-0.96 17.281-0.454 11.391 0.117 23.084-0.72 33.84-0.06 0.259-0.48 0.161-0.48 0.478z" fill-rule="evenodd" stroke="#C71F4B" clip-rule="evenodd" stroke-width="3" fill="#C71F4B"/>
<path d="m36.926 86.683c0.679-0.378-0.542-1.285 0.24-1.68 4.127-0.237 8.74-1.733 12.48-5.04 0.595-0.525 0.865-1.299 1.44-1.92 2.174-2.348 4.483-5.193 6-8.4 0.906-6.61 3.215-13.621 2.16-21.36-0.442-3.241-1.679-7.219-2.88-11.04-2.075-6.599-3.873-13.079-7.92-17.04-1.913-1.873-6.71-4.389-9.36-4.32-1.336 0.035-3.041 0.411-4.32 0.72-2.14 0.518-5.137 1.792-7.44 2.88-5.748 2.715-11.211 10.192-12.48 17.28-0.227 1.267-0.039 2.695-0.24 4.08-0.646 4.442-0.176 9.671 0.24 14.88 0.365 4.575 0.476 9.403 2.4 12.721 2.618 4.513 7.069 10.29 10.56 13.199 1.974 1.646 4.739 2.281 6.48 4.32-2.131 1.427-4.996 0.057-6.48-0.96-4.78-3.272-8.24-9.668-12-14.16-3.396-7.892-3.366-17.241-4.32-25.2 1.057-8.214 2.63-16.068 7.44-21.84 3.492-4.19 7.025-6.125 12.72-8.4 3.711-1.482 7.994-2.504 11.28-2.16 3.725 2.599 7.908 4.953 10.56 9.36 3.251 5.402 6.029 15.576 7.44 22.8 0.633 3.24 0.508 5.224 0.24 8.161-0.418 4.58-0.617 9.717-1.44 13.92-0.582 2.972-2.483 6.257-3.84 8.399-1.365 2.155-3.511 4.24-5.52 6-3.597 3.151-8.006 6.117-13.44 4.8z" fill-rule="evenodd" stroke="#C71F4B" clip-rule="evenodd" stroke-width="3" fill="#C71F4B"/>
<path d="m127.89 51.644c-1.257-3.709 5.978-2.847 9.12-2.64 2.956 0.195 6.909 0.541 9.601 0.72 2.445 0.163 7.417-0.693 8.64 1.68-3.719 2.158-8.612 0.954-13.2 0.48-5.05-0.521-9.84-0.006-14.16-0.24z" fill-rule="evenodd" stroke="#C71F4B" clip-rule="evenodd" stroke-width="3" fill="#C71F4B"/>
<path d="m72.686 86.444h-0.96c-0.876-2.188-0.553-4.631-0.48-6.96 0.077-2.458-0.34-4.885-0.24-7.44 0.113-2.883 0.856-5.655 0.96-8.4 0.292-7.69-0.526-14.25-0.72-20.88-0.055-1.87-0.179-3.775-0.24-5.52-0.058-1.641-0.297-3.415-0.24-4.8 0.034-0.834 0.626-1.866 0.72-2.88 0.404-4.382 0.04-8.87 2.88-11.76 0.851-0.866 3.819-2.133 5.04-2.4 4.269-0.934 8.524 0.48 12.96 0.96 6.25 0.677 12.632 0.926 16.56 5.28 1.761 1.952 3.528 5.39 4.32 9.12 0.612 2.886 1.179 6.737 0.96 8.16-0.467 3.032-3.896 7.234-6 9.36-1.502 1.518-2.836 3.222-5.04 3.84-1.387 0.39-2.718-0.086-4.08 0-1.129 0.071-2.205 0.612-3.36 0.72-2.855 0.266-5.763-0.646-8.4-0.48-3.377 0.212-6.618 2.234-9.6-0.24 0.583-1.921 3.04-1.129 4.32-1.2 1.467-0.082 2.928-0.6 4.32-0.72 5.464-0.471 11.463 1.254 16.8-0.72 3.262-1.207 8.218-6.609 8.64-10.56 0.295-2.764-1.33-9.814-3.12-12.96-1.508-2.65-3.949-4.075-6-5.28-3.081 0.195-5.77-0.732-8.64-1.2-1.836-0.299-3.643-0.229-5.52-0.48-3.672-0.49-7.764-2.015-11.28 0.24-5.121 3.283-3.609 14.006-3.6 22.32 0.001 1.333-0.521 2.661-0.48 3.84 0.033 0.945 0.632 1.915 0.72 2.88 0.353 3.864 0.104 8.642 0.24 13.44 0.118 4.183-0.681 8.438-0.72 12.24-0.052 4.649 1.068 9.315-0.724 12.48z" fill-rule="evenodd" stroke="#C71F4B" clip-rule="evenodd" stroke-width="3" fill="#C71F4B"/>
<metadata><rdf:RDF><cc:Work><dc:format>image/svg+xml</dc:format><dc:type rdf:resource="http://purl.org/dc/dcmitype/StillImage"/><cc:license rdf:resource="http://creativecommons.org/licenses/publicdomain/"/><dc:publisher><cc:Agent rdf:about="http://openclipart.org/"><dc:title>Openclipart</dc:title></cc:Agent></dc:publisher><dc:title>Neon Open Sign</dc:title><dc:date>2007-10-13T20:29:22</dc:date><dc:description>Color drawing of a neon open sign.  Drawn by hand.</dc:description><dc:source>http://openclipart.org/detail/6922/neon-open-sign-by-stevelambert-6922</dc:source><dc:creator><cc:Agent><dc:title>SteveLambert</dc:title></cc:Agent></dc:creator><dc:subject><rdf:Bag><rdf:li>clip art</rdf:li><rdf:li>clipart</rdf:li><rdf:li>image</rdf:li><rdf:li>media</rdf:li><rdf:li>neon</rdf:li><rdf:li>neon sign</rdf:li><rdf:li>open</rdf:li><rdf:li>open sign</rdf:li><rdf:li>png</rdf:li><rdf:li>public domain</rdf:li><rdf:li>svg</rdf:li></rdf:Bag></dc:subject></cc:Work><cc:License rdf:about="http://creativecommons.org/licenses/publicdomain/"><cc:permits rdf:resource="http://creativecommons.org/ns#Reproduction"/><cc:permits rdf:resource="http://creativecommons.org/ns#Distribution"/><cc:permits rdf:resource="http://creativecommons.org/ns#DerivativeWorks"/></cc:License></rdf:RDF></metadata></svg>
