<?xml version="1.0" encoding="UTF-8" standalone="no"?>
<!-- Created with Inkscape (http://www.inkscape.org/) -->

<svg
   xmlns:dc="http://purl.org/dc/elements/1.1/"
   xmlns:cc="http://creativecommons.org/ns#"
   xmlns:rdf="http://www.w3.org/1999/02/22-rdf-syntax-ns#"
   xmlns:svg="http://www.w3.org/2000/svg"
   xmlns="http://www.w3.org/2000/svg"
   xmlns:sodipodi="http://sodipodi.sourceforge.net/DTD/sodipodi-0.dtd"
   xmlns:inkscape="http://www.inkscape.org/namespaces/inkscape"
   version="1.1"
   id="svg77204"
   width="1761.7787"
   height="697.48663"
   viewBox="0 0 1761.7787 697.48663"
   sodipodi:docname="sushi-sign-1432505575UuE.svg"
   inkscape:version="0.92.2 5c3e80d, 2017-08-06">
  <metadata
     id="metadata77210">
    <rdf:RDF>
      <cc:Work
         rdf:about="">
        <dc:format>image/svg+xml</dc:format>
        <dc:type
           rdf:resource="http://purl.org/dc/dcmitype/StillImage" />
        <dc:title></dc:title>
      </cc:Work>
    </rdf:RDF>
  </metadata>
  <defs
     id="defs77208" />
  <sodipodi:namedview
     pagecolor="#ffffff"
     bordercolor="#666666"
     borderopacity="1"
     objecttolerance="10"
     gridtolerance="10"
     guidetolerance="10"
     inkscape:pageopacity="0"
     inkscape:pageshadow="2"
     inkscape:window-width="1855"
     inkscape:window-height="807"
     id="namedview77206"
     showgrid="false"
     fit-margin-top="0"
     fit-margin-left="0"
     fit-margin-right="0"
     fit-margin-bottom="0"
     inkscape:zoom="0.484375"
     inkscape:cx="682.34366"
     inkscape:cy="316.15364"
     inkscape:window-x="0"
     inkscape:window-y="23"
     inkscape:window-maximized="0"
     inkscape:current-layer="svg77204" />
  <path
     id="path77214"
     style="fill:#aa0000"
     d="m 1643.1798,290.26372 c -17.482,-8.14682 -32.8486,-20.23589 -47.4687,-32.67468 -5.3844,-3.57507 -11.0733,-9.88498 -2.8302,-14.0826 20.7306,-18.33104 39.4512,-38.77839 57.7154,-59.52052 4.997,-5.95961 11.3215,-10.72633 18.9394,-12.70254 15.9995,-5.321 32.0606,-10.48949 47.8797,-16.30604 7.071,-1.78051 14.1638,-4.52198 21.4799,-4.65335 7.6974,4.94391 10.2785,14.87463 14.3436,22.64491 3.6752,9.63388 8.2218,19.45723 8.5398,29.90614 -5.6043,6.80183 -13.4092,11.95613 -20.036,17.91965 -16.2392,12.89876 -31.7697,26.66758 -48.1785,39.36864 -13.9228,10.72617 -27.2346,22.45887 -42.411,31.39733 -2.5985,1.45795 -5.4495,-0.6293 -7.9734,-1.29694 z M 126.32341,631.53224 C 86.458413,625.51601 51.608663,601.37192 22.350823,574.85747 10.220845,540.77882 61.315303,566.74742 78.202583,556.51231 135.13886,544.19017 186.706,514.06174 233.84482,481.16132 212.52959,473.44673 188.16428,468.90198 166.15465,460.77569 117.54258,444.19245 64.461533,429.12032 28.345343,390.48741 -4.6155018,348.66327 -4.7299308,290.30881 7.3762722,240.79539 28.692783,172.50349 83.521143,121.16689 140.53601,81.149805 194.01605,44.162615 253.73162,13.362368 318.37025,2.4796802 c 27.81655,-9.438831 48.04899,9.2039988 49.37229,36.6931318 9.86215,28.017783 33.50642,48.746973 60.15765,60.340153 -5.94134,49.021695 -15.63427,97.595695 -22.59548,146.457045 -27.7073,27.38204 -25.66388,-25.62107 -30.32016,-43.47922 0.85375,-19.32415 -5.0268,-34.49317 -25.56136,-22.51941 -67.60112,19.31626 -138.45882,45.62334 -183.37491,102.68555 -16.36564,17.21822 -26.00626,48.98232 -1.88024,64.46147 41.08008,31.17374 93.24548,41.20022 141.33444,56.87293 26.87165,6.89568 54.62624,19.99877 65.90362,47.18214 11.73453,19.72309 22.24854,44.07153 18.24266,67.22241 -16.43366,37.70761 -59.66014,49.40694 -93.1117,66.97773 -49.02881,20.54396 -99.86623,39.10433 -152.73683,46.29634 -5.81826,0.28994 -11.67231,0.54461 -17.47682,-0.13771 z m 1524.99999,22.32328 c -19.2407,-7.23193 -38.6119,-15.55038 -54.9626,-28.154 -14.1189,-15.49947 -17.7368,-37.21464 -23.7838,-56.62397 -4.432,-10.68914 -0.3724,-31.78934 -17.7093,-29.70648 -9.546,-1.18733 -22.1777,-0.0396 -29.8361,-5.22459 0.9842,-18.48761 -0.3907,-37.28191 3.3748,-55.47169 8.2343,-17.34082 21.5687,-31.76468 33.6005,-46.57725 21.6709,-25.37967 46.1046,-48.94935 75.7221,-64.87313 24.9202,-14.08768 51.4858,-27.12077 80.1755,-30.77845 10.7558,6.62085 20.2907,20.04695 21.2723,33.22618 -4.273,24.97136 -9.9399,49.74838 -15.1603,74.54912 -11.9572,53.27733 -25.213,106.32761 -33.3887,160.37083 -3.9251,12.72348 0.2509,28.18766 -7.4459,39.303 -8.7177,6.52729 -20.4733,15.54544 -31.8585,9.96043 z m -922.11513,21.43673 c -12.57135,-13.18325 -18.99332,-39.86339 -42.38486,-30.61783 -20.76981,0.55495 -28.0021,-26.52535 -38.01632,-41.1298 -8.63558,-16.48459 -15.7208,-33.83841 -21.8145,-51.30945 -16.78189,0.62873 -29.94323,17.80392 -45.31879,24.8889 -23.3477,14.51531 -49.08742,29.26022 -77.68286,25.94828 -20.21982,-2.95671 -41.5226,-4.97247 -60.20127,-13.49444 -7.46676,-15.81051 -2.65923,-35.07833 -5.19401,-52.32095 -2.56602,-25.32498 1.086,-50.62005 2.47567,-75.89975 7.04907,-53.97657 16.91943,-108.3245 37.66306,-158.86638 6.6736,-18.56688 31.84039,-13.24493 47.42975,-18.76711 19.03934,-5.00487 42.54893,-0.87458 57.06599,-16.72851 14.56034,-6.64607 34.84254,-7.94399 49.09328,-3.7819 -9.95457,22.14975 -20.75584,44.48999 -26.6502,68.33352 -7.79545,26.76099 -17.37789,53.02658 -24.83857,79.82115 -6.7937,21.42281 -11.76981,43.46132 -18.34088,64.99936 -1.59847,11.34892 -11.6422,34.09686 -5.71197,39.44754 34.73248,-28.75211 63.43079,-64.0475 91.97255,-98.76629 15.91803,-18.89981 30.12807,-39.50692 47.63475,-56.92577 24.46881,-8.26401 49.89408,-15.16087 75.67725,-17.83483 17.44204,-4.97426 4.93538,17.70734 6.28198,26.8853 -12.24546,82.28007 -14.72947,165.69568 -13.30423,248.7548 0.53985,17.63595 3.55233,35.1116 4.13676,52.72109 -12.39799,3.35792 -27.46703,9.07293 -39.97258,4.64307 z m 154.23935,-8.36878 c 2.4747,-10.53348 -4.16869,-26.30974 5.30709,-33.69212 22.13314,-17.05634 44.6785,-37.50629 52.1071,-65.34832 -10.4409,-12.74197 -30.80864,-11.63983 -45.65998,-17.77998 -22.84807,-5.27367 -43.15284,-22.54433 -47.79932,-46.14995 -8.02402,-35.4574 -10.66921,-71.91564 -13.86597,-108.0566 -1.36686,-20.22771 19.31437,-31.36045 31.78687,-43.80328 53.2358,-41.57242 113.3672,-75.03693 178.21509,-94.49316 17.9635,-2.07743 32.0181,14.48104 44.123,25.81141 12.2417,9.6899 12.1068,23.16222 -4.2831,26.75065 -38.4541,20.95454 -71.9923,50.26725 -100.92649,82.92182 -18.9461,16.20702 17.245,20.84537 26.77129,29.42233 25.0705,14.12362 50.8959,30.48131 66.3779,55.4012 12.4626,25.46857 -2.7468,53.05476 -17.3572,73.87807 -27.4059,39.6853 -65.13239,70.90935 -104.02119,98.80557 -20.4622,13.70719 -41.95317,27.76642 -66.26987,33.22222 -8.20833,2.88354 -3.02026,-13.2716 -4.50522,-16.88986 z m 273.37578,30.52617 c -19.5406,-7.7818 -11.9678,-40.84438 -18.991,-58.77362 -5.2573,-48.91888 -10.5935,-98.65951 -5.3098,-147.76188 9.1303,-48.25968 37.3564,-89.73373 57.8698,-133.6322 43.606,-84.61 93.8794,-165.67581 149.045,-243.21979 13.6761,-18.088645 20.4006,-47.361705 45.9894,-51.463175 24.0248,-2.6524 50.0262,-2.00611 72.3109,7.86835 1.6247,24.08908 -11.1654,47.988545 -15.8632,71.826875 -21.2984,73.72677 -62.5859,139.41392 -108.036,200.46905 -17.0253,26.62197 -22.092,58.81041 -37.7374,86.26564 -16.4717,37.32583 -39.1076,72.0368 -52.5764,110.5534 19.9485,1.13065 27.3935,-38.64143 42.1725,-52.4652 29.5857,-41.91879 58.3018,-84.5652 89.6756,-125.15295 10.4009,-18.31808 35.3604,-1.86809 41.8767,-24.37863 21.359,-1.42296 51.6948,-2.19954 44.5625,28.14738 6.2228,63.77027 15.3519,127.36326 16.7479,191.51083 -9.1906,16.52508 -31.0542,29.63178 -20.5077,49.89041 -17.2084,17.973 -36.2656,38.67178 -57.4201,49.81187 -13.6986,-38.43886 -31.2314,-76.29614 -57.9965,-107.77253 -13.4973,-32.62108 -38.299,-4.42738 -53.3992,11.06154 -37.873,35.67796 -69.0265,77.62329 -94.733,122.73036 -6.7545,13.5237 -24.41,14.78602 -37.68,14.48427 z" />
</svg>
